# xmcd CD database file
#
# Track frame offsets:
#	150
#	22889
#	34794
#	55406
#	74972
#	94331
#	102781
#	117463
#	134796
#	156629
#	170563
#	182645
#
# Disc length: 2630 seconds
#
# Revision: 3
# Processed by: cddbd v1.5.2PL0 Copyright (c) Steve Scherf et al.
# Submitted via: CDex 1.79
#
DISCID=b70a440c
DTITLE=Hana Hegerova - Sansony
DYEAR=1995
DGENRE=Chanson
TTITLE0=Stastne slunce
TTITLE1=Madony na kolotoci
TTITLE2=Blazen a dite
TTITLE3=Barova lavice
TTITLE4=Zidovska mama
TTITLE5=Noc
TTITLE6=Amfora
TTITLE7=Obraz Doriana Graye
TTITLE8=Pisen o maliri
TTITLE9=Kazani v kapli Betlemske
TTITLE10=Petr a Lucie
TTITLE11=Mon Dieu
EXTD=YEAR: 1995
EXTT0=
EXTT1=
EXTT2=
EXTT3=
EXTT4=
EXTT5=
EXTT6=
EXTT7=
EXTT8=
EXTT9=
EXTT10=
EXTT11=
PLAYORDER=
